<?xml version="1.0" encoding="utf-8"?>
<!-- Generator: Adobe Illustrator 22.0.1, SVG Export Plug-In . SVG Version: 6.00 Build 0)  -->
<svg version="1.1" id="Layer_1" xmlns="http://www.w3.org/2000/svg" xmlns:xlink="http://www.w3.org/1999/xlink" x="0px" y="0px"
	 viewBox="0 0 841.9 157.7" style="enable-background:new 0 0 841.9 157.7;" xml:space="preserve">
<style type="text/css">
	.st0{fill:#AD8B19;}
	.st1{fill:#FFFFFF;}
</style>
<g>
	<g id="XMLID_352_">
		<g id="XMLID_442_">
			<g id="XMLID_443_">
				<g id="XMLID_497_">
					<path id="XMLID_498_" class="st0" d="M92.3,62.1c0,1-0.3,1.7-0.8,2.3c-0.6,0.5-1.3,0.8-2.3,0.8h-2.4h-1.5H67.5
						c-4,0-6-2.1-6-6.3v-0.3c0-4.2,2-6.4,6.1-6.5l2.5,0h5.7v-5.7l-8.3,0c-3.3,0-6.2,1.2-8.5,3.6c-2.4,2.4-3.6,5.3-3.6,8.8
						c0,2.4,0.6,4.5,1.8,6.4h-7.1h-1.5h-5.5v-31l-0.1-1.4c-3-0.1-5.3-0.1-6.8,0v32.4H30l-1.5-9.4c-0.2-1.3-0.5-2.9-0.8-5
						c-0.3-2.1-0.6-3.5-0.7-4.3h-6.9L23,65.1h-9.9v5.5h35.6h1.5h35h1.5h3c6.4,0,9.6-3.1,9.6-9.3V32.7h-7V62.1z"/>
				</g>
				<g id="XMLID_495_">
					<rect id="XMLID_496_" x="105.4" y="32.6" class="st0" width="6.9" height="38"/>
				</g>
				<g id="XMLID_493_">
					<path id="XMLID_494_" class="st0" d="M136.2,41.2c2.5,0,3.7-1.2,3.7-3.6c0-2.4-1.3-3.6-3.8-3.6c-2.3,0-3.5,1.2-3.6,3.6
						C132.5,40,133.7,41.2,136.2,41.2z"/>
				</g>
				<g id="XMLID_491_">
					<path id="XMLID_492_" class="st0" d="M145.7,41.2c2.5,0,3.7-1.2,3.7-3.6c0-2.4-1.3-3.6-3.8-3.6c-2.3,0-3.5,1.2-3.6,3.6
						C142.1,40,143.3,41.2,145.7,41.2z"/>
				</g>
				<g id="XMLID_489_">
					<path id="XMLID_490_" class="st0" d="M184.3,41.2c2.5,0,3.7-1.2,3.7-3.6c0-2.4-1.3-3.6-3.8-3.6c-2.3,0-3.5,1.2-3.6,3.6
						C180.6,40,181.8,41.2,184.3,41.2z"/>
				</g>
				<g id="XMLID_487_">
					<path id="XMLID_488_" class="st0" d="M230.3,41.2c2.5,0,3.7-1.2,3.7-3.6c0-2.4-1.3-3.6-3.8-3.6c-2.3,0-3.5,1.2-3.6,3.6
						C226.6,40,227.8,41.2,230.3,41.2z"/>
				</g>
				<g id="XMLID_481_">
					<path id="XMLID_482_" class="st0" d="M220,49.9c-2.4,2.4-3.6,5.3-3.6,8.8c0,2.4,0.6,4.5,1.8,6.4h-7.3h-1.5H204V64
						c0-4.4-0.4-7.6-1.1-9.6c-1.6-4.4-4.9-7-9.7-7.7c-1.1-0.2-3.2-0.3-6.1-0.3h-5.8c-2.4,0-4.5,0.1-6.1,0.3
						c-2.1,0.3-3.8,0.9-5.3,1.9v-16h-7v32.5h-4.7H156h-4.6V46.4l-12.1-0.1c-3.3,0-6.1,1.2-8.5,3.6c-2.4,2.4-3.6,5.4-3.6,8.8
						c0,8,4.1,12,12.1,12H156h2.3h51.1h1.5h29.7V46.4l-12.1,0C225.2,46.4,222.3,47.6,220,49.9z M139.1,65.1c-4,0-6-2.1-6-6.3v-0.3
						c0-4.2,2-6.4,6.1-6.5l2.5,0h3.5l0,13.1H139.1z M170.2,65.1c0.1-3.6,0.2-5.7,0.3-6.5c0.8-2.9,2.6-4.8,5.4-5.6
						c0.7-0.2,1.7-0.3,2.9-0.4c1.5,0,3.3-0.1,5.4-0.1c2.1,0,3.9,0,5.4,0.1c1.2,0.1,2.2,0.2,2.9,0.4c2.9,0.8,4.6,2.7,5.4,5.6
						c0.2,0.7,0.3,2.9,0.3,6.5H170.2z M234.6,52l0,0.7l0,12.4h-6.1c-4,0-6-2.1-6-6.3v-0.3c0-4.2,2-6.4,6.1-6.5l2.5,0H234.6z"/>
				</g>
				<g id="XMLID_477_">
					<path id="XMLID_478_" class="st0" d="M332.5,62.1c0,1-0.3,1.7-0.8,2.3c-0.6,0.5-1.3,0.8-2.3,0.8H327c-1.6,0-2.9,0-3.8-0.1
						c-1.4-0.2-2.2-1-2.5-2.3c0.4-1.3,0.5-2.5,0.5-3.7c0-3.4-1.2-6.4-3.6-8.8c-2.4-2.4-5.2-3.7-8.6-3.7c-3.3,0-6.2,1.2-8.6,3.7
						c-2.4,2.4-3.6,5.4-3.6,8.8c0,1.3,0.2,2.5,0.5,3.6c-0.3,1.3-1.2,2.1-2.6,2.4c-0.1,0.1-1.4,0.1-3.8,0.1h-5.4V64
						c0-4.5-0.3-7.7-1-9.6c-1.6-4.4-4.9-7-9.7-7.7c-1.4-0.2-3.5-0.3-6.1-0.3h-4.2v6.1c0.1,0,0.6,0,1.3,0c0.6,0,1.4,0,2.2,0
						c0.8,0,1.5,0,2,0c0.5,0,0.9,0,1.3,0c1.2,0,2.2,0.2,2.9,0.4c2.8,0.7,4.6,2.6,5.4,5.7c0.2,0.7,0.3,2.9,0.2,6.5H259h-1.5h-5.5
						V32.7h-7v37.9h12.5h1.5h32h1.5h1.4c2.4,0,4.3-0.8,5.9-2.4l0.6-0.4l-0.2-0.3c2.4,2.7,5.4,4,8.9,4c3.4,0,6.2-1.2,8.6-3.7l0.6,0.4
						c1.5,1.6,3.5,2.4,5.9,2.4h1.4h1.5h2.9c6.4,0,9.6-3.1,9.6-9.3V32.7h-7V62.1z M309,66.3c-3.1,0-4.6-2.4-4.6-7.2
						c0-4.8,1.5-7.2,4.6-7.2c3.1,0,4.6,2.4,4.6,7.2C313.7,63.8,312.1,66.3,309,66.3z"/>
				</g>
				<g id="XMLID_475_">
					<path id="XMLID_476_" class="st0" d="M359.8,37.6c0,2.4,1.2,3.6,3.6,3.6c2.5,0,3.7-1.2,3.7-3.6c0-2.4-1.3-3.6-3.8-3.6
						C361,34,359.8,35.2,359.8,37.6z"/>
				</g>
				<g id="XMLID_473_">
					<path id="XMLID_474_" class="st0" d="M369.4,37.6c0,2.4,1.2,3.6,3.6,3.6c2.5,0,3.7-1.2,3.7-3.6c0-2.4-1.3-3.6-3.8-3.6
						C370.6,34,369.4,35.2,369.4,37.6z"/>
				</g>
				<g id="XMLID_471_">
					<path id="XMLID_472_" class="st0" d="M393.4,75.5c-2.3,0-3.5,1.2-3.6,3.6c0,2.4,1.2,3.6,3.6,3.6c2.5,0,3.7-1.2,3.7-3.6
						C397.1,76.6,395.9,75.4,393.4,75.5z"/>
				</g>
				<g id="XMLID_469_">
					<path id="XMLID_470_" class="st0" d="M402.9,75.5c-2.3,0-3.5,1.2-3.6,3.6c0,2.4,1.2,3.6,3.6,3.6c2.5,0,3.7-1.2,3.7-3.6
						C406.7,76.6,405.4,75.4,402.9,75.5z"/>
				</g>
				<g id="XMLID_464_">
					<path id="XMLID_465_" class="st0" d="M518.8,70.6c6.4,0,9.6-3.1,9.6-9.3V32.7h-7v29.3c0,1-0.3,1.7-0.8,2.3
						c-0.6,0.5-1.3,0.8-2.3,0.8h-2.4c-1.6,0-2.9,0-3.8-0.1c-1.4-0.2-2.2-1-2.5-2.3c0.4-1.3,0.5-2.5,0.5-3.7c0-3.4-1.2-6.4-3.6-8.8
						c-2.4-2.4-5.2-3.7-8.6-3.7c-3.3,0-6.2,1.2-8.6,3.7c-2.4,2.4-3.6,5.4-3.6,8.8c0,1.3,0.2,2.5,0.5,3.6c-0.3,1.3-1.2,2.1-2.6,2.4
						c-0.1,0.1-1.4,0.1-3.8,0.1h-5.5V32.7h-7v32.4h-5.6h-1.5h-5.5v-4.5c0-2.1-0.3-4.1-1-5.9c-1.7-4.9-5.2-7.6-10.4-8.1
						c-0.1,0-0.4,0-0.8-0.1c-0.4,0-0.8-0.1-1.1-0.1v0h-19.3c0-2.3,0.1-3.8,0.2-4.7c0.2-1.2,0.9-1.9,2.2-2.2c0.7-0.1,1.4-0.2,2-0.2
						h14.8v-6.6l-1.3-0.1h-14.4c-1,0-1.9,0.1-2.8,0.3c-3.3,0.8-5.4,3-6.2,6.4c-0.2,0.9-0.3,1.8-0.3,2.8l0,10.8c2.8,0,5.7,0,8.5,0
						c2.3,0,5.1,0,8.4,0h0.4l3.1,0.1h0.1h0h0h0h0h0h0h0h0l0,0h0h0h0h0h0h0h0h0h0h0.1h0h0h0h0h0h0h0h0h0h0h0h0h0h0h0.1h0h0h0h0h0h0h0
						h0h0h0.1h0h0h0h0h0h0l0,0h0h0.1h0h0h0h0h0h0h0.1h0h0h0h0h0h0h0.1h0h0h0c1.2,0,2.1,0.2,2.8,0.3c3.2,0.7,5.2,2.8,5.9,6
						c0.2,0.7,0.3,1.6,0.3,2.6v1.8l-0.1,1.3h-40h-1.5H402V46.4h-7v18.7h-9.5h-2.3h-4.6V46.4l-12.1-0.1c-3.3,0-6.1,1.2-8.5,3.6
						c-2.4,2.4-3.6,5.4-3.6,8.8c0,8,4.1,12,12.1,12h16.8h2.3h22h1.5h51.2h1.5h18h1.5h1.4c2.4,0,4.3-0.8,5.9-2.4l0.6-0.4l-0.2-0.3
						c2.4,2.7,5.4,4,8.9,4c3.4,0,6.2-1.2,8.6-3.7l0.6,0.4c1.5,1.6,3.5,2.4,5.9,2.4h1.4h1.5H518.8z M366.4,65.1c-4,0-6-2.1-6-6.3
						v-0.3c0-4.2,2-6.4,6.1-6.5l2.5,0h3.5l0,13.1H366.4z M497.9,66.3c-3.1,0-4.6-2.4-4.6-7.2c0-4.8,1.5-7.2,4.6-7.2
						c3.1,0,4.6,2.4,4.6,7.2C502.5,63.8,501,66.3,497.9,66.3z"/>
				</g>
				<g id="XMLID_462_">
					<rect id="XMLID_463_" x="534.5" y="32.6" class="st0" width="6.9" height="38"/>
				</g>
				<g id="XMLID_460_">
					<path id="XMLID_461_" class="st0" d="M561.7,37.6c0,2.4,1.2,3.6,3.6,3.6c2.5,0,3.7-1.2,3.7-3.6c0-2.4-1.3-3.6-3.8-3.6
						C562.9,34,561.7,35.2,561.7,37.6z"/>
				</g>
				<g id="XMLID_458_">
					<path id="XMLID_459_" class="st0" d="M571.2,37.6c0,2.4,1.2,3.6,3.6,3.6c2.5,0,3.7-1.2,3.7-3.6c0-2.4-1.3-3.6-3.8-3.6
						C572.4,34,571.3,35.2,571.2,37.6z"/>
				</g>
				<g id="XMLID_456_">
					<path id="XMLID_457_" class="st0" d="M592,41.8h7.7v-2.3l-3.2,0c-0.7,0-1-0.3-1.1-1l0-0.7c0.1-0.7,0.6-1.2,1.3-1.2
						c0.1,0,0.6,0,1.5,0l0.5,0v-1.9c-1-0.4-1.9-0.5-2.8-0.3c-2.4,0.6-3.3,2-2.7,4.4l0.1,0.6H592V41.8z"/>
				</g>
				<g id="XMLID_454_">
					<path id="XMLID_455_" class="st0" d="M611.2,79.1c0,2.4,1.2,3.6,3.6,3.6c2.5,0,3.7-1.2,3.7-3.6c0-2.4-1.3-3.6-3.8-3.6
						C612.4,75.5,611.3,76.7,611.2,79.1z"/>
				</g>
				<g id="XMLID_452_">
					<path id="XMLID_453_" class="st0" d="M620.8,79.1c0,2.4,1.2,3.6,3.6,3.6c2.5,0,3.7-1.2,3.7-3.6c0-2.4-1.3-3.6-3.8-3.6
						C622,75.5,620.8,76.7,620.8,79.1z"/>
				</g>
				<g id="XMLID_446_">
					<path id="XMLID_447_" class="st0" d="M606.2,70.6H629h1.5h38.1h1.5h2.9c6.4,0,9.6-3.1,9.6-9.3V32.7h-7v29.3
						c0,1-0.3,1.7-0.8,2.3c-0.6,0.5-1.3,0.8-2.3,0.8h-3.9v0l-5.5,0V64c0-4.5-0.3-7.7-1-9.6c-1.6-4.4-4.9-7-9.7-7.7
						c-1.3-0.2-3.4-0.3-6.1-0.3h-4.2v6.7l1.3,0c-5,0.8-7.5,3.7-7.5,8.7c0,1.2,0.2,2.3,0.7,3.3h-6.1H629h-5.5V46.4h-7v18.7h-10.3
						h-1.5h-5.5V46.4h-7v18.7h-4.8h-2.3h-4.6V46.4l-12.1-0.1c-3.3,0-6.1,1.2-8.5,3.6c-2.4,2.4-3.6,5.4-3.6,8.8c0,8,4.1,12,12.1,12
						h16.8h2.3h17.3H606.2z M648.8,53.2c1.2,0,2.2,0.2,2.9,0.4c2.8,0.8,4.6,2.7,5.4,5.7c0.2,0.7,0.3,2.7,0.3,5.8h-4.1
						c0.4-1.1,0.7-2.2,0.7-3.3c0-4.8-2.4-7.7-7.3-8.6C647.8,53.2,648.5,53.2,648.8,53.2z M645,58.2c2.4,0,3.7,1.2,3.7,3.6
						c0,1.6-0.7,2.7-2.2,3.3h-2.9c-1.5-0.6-2.2-1.7-2.2-3.3C641.3,59.4,642.5,58.2,645,58.2z M568.3,65.1c-4,0-6-2.1-6-6.3v-0.3
						c0-4.2,2-6.4,6.1-6.5l2.5,0h3.5l0,13.1H568.3z"/>
				</g>
				<g id="XMLID_444_">
					<rect id="XMLID_445_" x="688.8" y="32.6" class="st0" width="6.9" height="38"/>
				</g>
			</g>
		</g>
		<g id="XMLID_437_">
			<g id="XMLID_440_">
				<rect id="XMLID_441_" x="735.5" y="1.9" class="st0" width="98.5" height="154.5"/>
			</g>
			<g id="XMLID_438_">
				<path id="XMLID_439_" class="st1" d="M825.9,89.8c-1-0.5-2.7-1.5-5.1-2.2c-3.5-1.1-8.3-1.9-14.1-1c-1.9,0.3-4,0.8-6.1,1.6
					c-0.2,0.1-0.4,0.1-0.6,0.2c-1.1,0.4-2.2,0.9-3.2,1.4c-0.9,0.5-1.8,1-2.8,1.5c-2.1,1.2-4.1,2.7-6.1,4.2
					c-2.3-13.8-1.2-26.5-0.6-32.8c0,0,0-0.1,0.1,0c4.9,3.1,3.5,11.6,2.5,14.1c0,0,0.1,0.1,0.1,0c6.1-7.2,3.1-15.1,1.9-17.1
					c0,0,0-0.1,0.1-0.1c0.9,0.7,1.6,1.5,2.2,2.2c1.9,2.4,2.6,5,2.8,7.3c0.1,1.2,0.1,2.3,0,3.3c0,0.3,0,0.5-0.1,0.7c0,0,0,0,0.1,0
					c0,0,0,0,0,0c1.6-3.2,2.4-8.1,0-12.8c-0.7-1.3-1.6-2.5-2.8-3.8c-0.3-0.4-0.7-0.7-1.1-1c0,0,0-0.1,0-0.1c0.4,0.1,0.7,0.2,1.1,0.3
					c1,0.4,2,0.9,2.8,1.4c1.8,1.4,3.1,3.2,3.8,5.2c0.6,1.6,0.9,3.3,0.9,4.7c0,0.1,0.1,0.1,0.1,0c1.1-4.2,0.5-7.4-1-9.7
					c-1-1.7-2.4-2.9-3.8-3.7c-1-0.6-1.9-1-2.8-1.2c-0.5-0.1-0.9-0.2-1.3-0.3c-0.1,0,0-0.1,0-0.1c0.5,0,0.9-0.1,1.3-0.1
					c1,0,1.9,0.1,2.8,0.2c1.6,0.3,2.9,0.9,3.8,1.5c1.5,1,2.3,2.3,2.6,2.8c0,0,0.1,0,0.1,0c-0.2-2.2-1.2-3.9-2.7-5.2
					c-1.1-1-2.4-1.6-3.8-2c-0.9-0.3-1.8-0.4-2.8-0.4c-1.2,0-2.4,0.2-3.4,0.6c0,0-0.1,0-0.1-0.1c0.9-1.3,2.2-2.1,3.5-2.5
					c0.9-0.3,1.9-0.4,2.8-0.3c0.8,0,1.6,0.2,2.3,0.5c0,0,0.1,0,0.1-0.1c-0.7-0.8-1.5-1.4-2.3-1.9c-0.9-0.5-1.8-0.8-2.8-0.9
					c-2.5-0.3-5,0.8-6.6,3.3c0,0-0.1,0-0.1,0c-0.3-0.6-0.6-1.2-0.9-1.9c-0.7-1.5-1.2-3.3-1.5-5c0-0.1-0.1-0.1-0.1,0
					c-0.3,1.7-0.8,3.5-1.5,5c-0.3,0.7-0.6,1.3-0.9,1.8c0,0-0.1,0-0.1,0c-2.9-4.4-8.4-4.3-11.7-0.5c0,0,0,0.1,0.1,0.1
					c2.2-1.1,6.4-0.7,8.5,2.3c0,0,0,0.1-0.1,0.1c-3.2-1.4-8.3-0.5-10.9,2.7c-1,1.1-1.6,2.6-1.8,4.3c0,0.1,0.1,0.1,0.1,0
					c0.2-0.4,0.7-1.2,1.7-2.1c1.6-1.4,4.3-2.8,8.8-2.4c0.1,0,0.1,0.1,0,0.1c-2.3,0.3-7.1,2.3-8.8,7c-0.8,2.1-1,4.7-0.1,7.9
					c0,0.1,0.1,0,0.1,0c0-0.1,0-0.1,0-0.2c0-4.3,2.5-10,8.5-11.5c0,0,0.1,0.1,0,0.1c-6.8,6-6.1,13.3-3.9,17.6c0,0,0.1,0,0.1,0
					c-0.3-3.3-0.5-9.1,4.9-13.5c0,0,0.1,0,0.1,0.1c-1.2,2-4.2,9.9,1.9,17.1c0,0,0.1,0,0.1,0c-1-2.4-2.4-11,2.5-14.1c0,0,0.1,0,0.1,0
					c0.5,6.3,1.6,19-0.6,32.8c-3.9-3-8-5.6-12.1-7.2c-0.5-0.2-1-0.4-1.5-0.5c-4.2-1.4-8.1-1.8-11.5-1.6c-5.4,0.2-9.6,1.9-11.8,3
					c-0.5,0.2-0.8,0.4-1.2,0.6c-0.1,0.1,0,0.2,0.1,0.2c0.4-0.1,0.7-0.2,1.1-0.3c4.2-1.2,8.1-1.5,11.8-1.2c4.1,0.4,7.9,1.5,11.5,3.1
					c5,2.3,9.6,5.5,13.7,8.9c-5.8,5-10.7,10-13.7,11.7c-0.2,0.1-0.3,0.2-0.4,0.2c-0.7-1-1.9-1.5-3.3-1.2c-1.2,0.3-2.1,1.2-2.4,2.4
					c-0.2,1,0,2.2,0.6,2.8c1.6,1.6,3.4,1.7,5.5,0.8c4-1.7,9-7,15.1-12.6c0.5-0.5,1-0.9,1.6-1.4c0.5,0.5,1,0.9,1.5,1.4
					c2.8,2.5,5.3,5,7.6,7.1c1,0.9,1.9,1.7,2.8,2.4c1.4,1.1,2.6,2,3.8,2.7c2.3,1.2,4.4,1.4,6.1-0.1c0.1-0.1,0.2-0.2,0.3-0.3
					c0.4-0.4,0.9-1.7,0.6-2.8c-0.1-0.6-0.5-1.1-0.9-1.6c-0.4-0.4-0.9-0.7-1.5-0.8c-1.4-0.3-2.6,0.3-3.3,1.2
					c-0.4-0.2-0.8-0.5-1.3-0.8c-1.1-0.8-2.4-1.8-3.8-3.1c-0.9-0.8-1.8-1.6-2.8-2.5c-1.9-1.7-4-3.6-6.2-5.5c2-1.6,4-3.2,6.2-4.7
					c0.9-0.6,1.8-1.2,2.8-1.8c1.2-0.7,2.5-1.4,3.8-2.1c2-0.9,4-1.7,6.1-2.3c4.4-1.2,9.1-1.7,14.1-0.9c1.6,0.3,3.3,0.6,5,1.2
					C825.9,90,826,89.8,825.9,89.8"/>
			</g>
		</g>
		<g id="XMLID_353_">
			<g id="XMLID_433_">
				<path id="XMLID_434_" class="st0" d="M20.4,136.9h-7.3v-36.8h18c4.2,0,7.2,0.9,9.2,2.6c2,1.7,3,4.6,3,8.5c0,5.7-2.3,9.1-7,10.3
					l8.6,15.4h-8.2L29,122.5h-8.6V136.9z M29.4,106.7h-9v9.3h9c2.5,0,4.2-0.3,5.1-1c1-0.7,1.4-1.9,1.4-3.7c0-1.5-0.3-2.6-0.8-3.1
					C34.3,107.2,32.3,106.7,29.4,106.7z"/>
			</g>
			<g id="XMLID_429_">
				<path id="XMLID_430_" class="st0" d="M60.2,137.5c-4.8,0-8.3-1.6-10.7-4.8c-1.9-2.5-2.9-5.6-2.9-9.3c0-3.8,1.1-6.9,3.2-9.5
					c2.5-3,5.9-4.6,10.4-4.6c3.7,0,6.8,1.1,9.3,3.3c2.8,2.5,4.3,6.1,4.3,10.7c0,4.1-1.2,7.4-3.5,10
					C67.8,136.1,64.4,137.5,60.2,137.5z M60.1,131.7c1.6,0,3.1-0.5,4.3-1.6c1.6-1.4,2.3-3.6,2.3-6.6c0-2.7-0.6-4.7-1.9-6.2
					c-1.2-1.3-2.7-2-4.6-2c-1.9,0-3.5,0.7-4.8,2.2c-1.2,1.4-1.8,3.5-1.8,6c0,2.5,0.6,4.4,1.8,5.9C56.7,130.9,58.2,131.7,60.1,131.7z
					"/>
			</g>
			<g id="XMLID_426_">
				<path id="XMLID_427_" class="st0" d="M88.3,131h5.5v-21.1h6.7v26.3c0,6.9-3.2,10.4-9.6,10.4H77.7v-5.5h12c2.7,0,4.1-1.4,4.1-4.2
					h-6c-3.6,0-6.2-0.8-7.9-2.3c-1.8-1.6-2.7-4.3-2.7-8v-16.7h6.6V126c0,1.8,0.2,3,0.6,3.6C85.1,130.6,86.3,131,88.3,131z"/>
			</g>
			<g id="XMLID_422_">
				<path id="XMLID_423_" class="st0" d="M117.9,115.5h-11.3v-5.6h13.8c7,0,10.5,3.4,10.5,10.1v16.9h-18.1c-2.5,0-4.4-0.7-5.8-2.2
					c-1.4-1.4-2.1-3.4-2.1-5.8c0-3.3,1-5.6,3.1-6.9c1.6-1,3.9-1.5,7.2-1.5h8.9c0-1.9-0.4-3.2-1.3-3.9
					C121.8,115.9,120.2,115.5,117.9,115.5z M115.6,131.6h8.4v-5.6h-8c-2.7,0-4,0.9-4.1,2.8c0,1.2,0.3,2,1.1,2.4
					C113.5,131.4,114.4,131.6,115.6,131.6z"/>
			</g>
			<g id="XMLID_419_">
				<path id="XMLID_420_" class="st0" d="M136.3,100.1h7v36.8h-7V100.1z"/>
			</g>
			<g id="XMLID_416_">
				<path id="XMLID_417_" class="st0" d="M191.6,100.1v6.3h-12c-2.8,0-4.8,0.9-6.2,2.7c-1.6,2.1-2.4,5.7-2.4,10.7
					c0,4.5,0.8,7.6,2.4,9.1c1.2,1.1,3.2,1.6,6.2,1.6h12v6.4h-12.3c-10.9,0-16.3-5.9-16.3-17.7c0-6.1,1.2-10.7,3.5-13.8
					c2.7-3.6,7-5.3,13-5.3H191.6z"/>
			</g>
			<g id="XMLID_412_">
				<path id="XMLID_413_" class="st0" d="M207.6,137.5c-4.8,0-8.3-1.6-10.7-4.8c-1.9-2.5-2.9-5.6-2.9-9.3c0-3.8,1-6.9,3.2-9.5
					c2.5-3,5.9-4.6,10.4-4.6c3.7,0,6.8,1.1,9.3,3.3c2.8,2.5,4.3,6.1,4.3,10.7c0,4.1-1.2,7.4-3.5,10
					C215.2,136.1,211.9,137.5,207.6,137.5z M207.5,131.7c1.6,0,3.1-0.5,4.3-1.6c1.6-1.4,2.3-3.6,2.3-6.6c0-2.7-0.6-4.7-1.9-6.2
					c-1.2-1.3-2.7-2-4.6-2c-1.9,0-3.5,0.7-4.8,2.2c-1.2,1.4-1.8,3.5-1.8,6c0,2.5,0.6,4.4,1.8,5.9
					C204.1,130.9,205.7,131.7,207.5,131.7z"/>
			</g>
			<g id="XMLID_409_">
				<path id="XMLID_410_" class="st0" d="M231.6,136.9h-6.7v-27h25.8c3.6,0,6.2,0.7,7.9,2.2c1.8,1.5,2.8,4.1,2.8,7.7v17.1h-6.7
					v-16.2c0-1.8-0.2-3-0.7-3.7c-0.6-0.9-1.8-1.3-3.6-1.3c-0.5,0-1.1,0-1.6,0.1h-1.2c-0.5,0-0.8,0-1,0.1v21h-6.9v-21h-7.9V136.9z"/>
			</g>
			<g id="XMLID_406_">
				<path id="XMLID_407_" class="st0" d="M273.6,136.9h-6.7v-27h25.8c3.6,0,6.2,0.7,7.9,2.2c1.8,1.5,2.8,4.1,2.8,7.7v17.1h-6.7
					v-16.2c0-1.8-0.2-3-0.7-3.7c-0.6-0.9-1.8-1.3-3.6-1.3c-0.5,0-1.1,0-1.6,0.1h-1.2c-0.5,0-0.8,0-1,0.1v21h-6.9v-21h-8V136.9z"/>
			</g>
			<g id="XMLID_402_">
				<path id="XMLID_403_" class="st0" d="M308.9,100.1h7v6.7h-7V100.1z M308.9,109.9h7v27h-7V109.9z"/>
			</g>
			<g id="XMLID_399_">
				<path id="XMLID_400_" class="st0" d="M338.2,136.9h-17.3v-5.6h14.2c2.4,0,3.6-0.9,3.6-2.7c0-1.7-1.2-2.6-3.6-2.6h-5.9
					c-3,0-5.1-0.4-6.3-1.1c-1.7-1.1-2.5-3.2-2.5-6.4c0-5.7,3-8.6,9-8.6h14.4v5.6H332c-1.7,0-2.8,0.2-3.4,0.5
					c-0.8,0.4-1.2,1.1-1.2,2.2c0,1.5,1.1,2.3,3.2,2.3h6.2c5.6,0,8.4,2.5,8.5,7.6c0,2.6-0.6,4.7-1.9,6.4
					C342.1,136.1,340.4,136.9,338.2,136.9z"/>
			</g>
			<g id="XMLID_396_">
				<path id="XMLID_397_" class="st0" d="M366.5,136.9h-17.3v-5.6h14.2c2.4,0,3.6-0.9,3.6-2.7c0-1.7-1.2-2.6-3.6-2.6h-5.9
					c-3,0-5.1-0.4-6.3-1.1c-1.7-1.1-2.5-3.2-2.5-6.4c0-5.7,3-8.6,9-8.6h14.4v5.6h-11.9c-1.7,0-2.8,0.2-3.4,0.5
					c-0.8,0.4-1.2,1.1-1.2,2.2c0,1.5,1.1,2.3,3.2,2.3h6.2c5.6,0,8.4,2.5,8.5,7.6c0,2.6-0.6,4.7-1.9,6.4
					C370.4,136.1,368.7,136.9,366.5,136.9z"/>
			</g>
			<g id="XMLID_392_">
				<path id="XMLID_393_" class="st0" d="M377.9,100.1h7v6.7h-7V100.1z M377.9,109.9h7v27h-7V109.9z"/>
			</g>
			<g id="XMLID_388_">
				<path id="XMLID_389_" class="st0" d="M402.2,137.5c-4.8,0-8.3-1.6-10.7-4.8c-1.9-2.5-2.9-5.6-2.9-9.3c0-3.8,1.1-6.9,3.2-9.5
					c2.5-3,5.9-4.6,10.4-4.6c3.7,0,6.8,1.1,9.3,3.3c2.8,2.5,4.3,6.1,4.3,10.7c0,4.1-1.2,7.4-3.5,10
					C409.8,136.1,406.4,137.5,402.2,137.5z M402.1,131.7c1.6,0,3.1-0.5,4.3-1.6c1.6-1.4,2.3-3.6,2.3-6.6c0-2.7-0.6-4.7-1.9-6.2
					c-1.2-1.3-2.7-2-4.6-2c-1.9,0-3.5,0.7-4.8,2.2c-1.2,1.4-1.8,3.5-1.8,6c0,2.5,0.6,4.4,1.8,5.9
					C398.7,130.9,400.2,131.7,402.1,131.7z"/>
			</g>
			<g id="XMLID_385_">
				<path id="XMLID_386_" class="st0" d="M426.1,136.9h-6.7v-27H432c3.8,0,6.6,0.8,8.2,2.3c1.7,1.5,2.5,4,2.5,7.6v17.1h-6.8v-16.2
					c0-2-0.3-3.3-0.8-3.9c-0.5-0.6-1.7-0.9-3.7-0.9h-5.4V136.9z"/>
			</g>
			<g id="XMLID_382_">
				<path id="XMLID_383_" class="st0" d="M473.2,136.9h-7v-21.6h-4.8v-5.4h4.8v-1.5c0-3.1,0.3-5.2,0.9-6.1c0.9-1.5,3-2.2,6.2-2.2
					h6.4v5.3c-3.4,0-5.2,0.1-5.5,0.2c-0.6,0.3-0.9,1.4-0.9,3.4v0.9h6.4v5.4h-6.4V136.9z"/>
			</g>
			<g id="XMLID_378_">
				<path id="XMLID_379_" class="st0" d="M494.4,137.5c-4.8,0-8.3-1.6-10.7-4.8c-1.9-2.5-2.9-5.6-2.9-9.3c0-3.8,1-6.9,3.2-9.5
					c2.5-3,5.9-4.6,10.4-4.6c3.7,0,6.8,1.1,9.3,3.3c2.8,2.5,4.3,6.1,4.3,10.7c0,4.1-1.2,7.4-3.5,10
					C502,136.1,498.6,137.5,494.4,137.5z M494.3,131.7c1.6,0,3.1-0.5,4.3-1.6c1.6-1.4,2.3-3.6,2.3-6.6c0-2.7-0.6-4.7-1.9-6.2
					c-1.2-1.3-2.7-2-4.6-2c-1.9,0-3.5,0.7-4.8,2.2c-1.2,1.4-1.8,3.5-1.8,6c0,2.5,0.6,4.4,1.8,5.9
					C490.9,130.9,492.4,131.7,494.3,131.7z"/>
			</g>
			<g id="XMLID_375_">
				<path id="XMLID_376_" class="st0" d="M518.3,136.9h-6.7v-27h11.3c3.1,0,5.1,0.7,6,1.9c0.7,1.2,1.1,3.7,1.1,7.7v1.6h-6.4v-2.2
					c0-2-0.2-3.1-0.7-3.5c-0.4-0.3-2-0.5-4.7-0.5V136.9z"/>
			</g>
			<g id="XMLID_371_">
				<path id="XMLID_372_" class="st0" d="M553.6,136.9h-7.8l14.6-36.8h7.8l14.9,36.8H575l-3.2-8.8h-15.2L553.6,136.9z M559,121.6
					h10.4l-5.3-14.1L559,121.6z"/>
			</g>
			<g id="XMLID_368_">
				<path id="XMLID_369_" class="st0" d="M584.4,100.1h7v36.8h-7V100.1z"/>
			</g>
			<g id="XMLID_365_">
				<path id="XMLID_366_" class="st0" d="M621.6,122.4v-22.3h7.3v22.1c0,3.1,0.4,5.3,1.3,6.6c1.1,1.7,3.3,2.6,6.6,2.6
					c2.8,0,4.7-0.6,5.9-1.8c1.3-1.4,1.9-3.8,1.9-7.4v-22.1h7.3v22.3c0,5.1-0.9,8.7-2.6,10.9c-2.2,2.7-6.4,4-12.4,4
					c-5.9,0-10-1.3-12.3-3.9C622.5,131.3,621.6,127.6,621.6,122.4z"/>
			</g>
			<g id="XMLID_362_">
				<path id="XMLID_363_" class="st0" d="M657.7,100.1h7v36.8h-7V100.1z"/>
			</g>
			<g id="XMLID_358_">
				<path id="XMLID_359_" class="st0" d="M681.8,115.5h-11.3v-5.6h13.8c7,0,10.5,3.4,10.5,10.1v16.9h-18.1c-2.5,0-4.4-0.7-5.8-2.2
					c-1.4-1.4-2.1-3.4-2.1-5.8c0-3.3,1-5.6,3.1-6.9c1.6-1,3.9-1.5,7.2-1.5h8.9c0-1.9-0.4-3.2-1.3-3.9S684.1,115.5,681.8,115.5z
					 M679.5,131.6h8.4v-5.6h-8c-2.7,0-4,0.9-4.1,2.8c0,1.2,0.3,2,1.1,2.4C677.5,131.4,678.3,131.6,679.5,131.6z"/>
			</g>
			<g id="XMLID_354_">
				<g id="XMLID_355_">
					<path id="XMLID_356_" class="st0" d="M614.5,122.7h-17.2v-6.4h17.2V122.7z"/>
				</g>
			</g>
		</g>
	</g>
</g>
</svg>
